HIERARCHY
ROOT Hips
{
	OFFSET -0.001795 -0.223333 0.028219
	CHANNELS 6 Xposition Yposition Zposition Zrotation Yrotation Xrotation 
	JOINT LeftUpLeg
	{
		OFFSET 0.069520 -0.091406 -0.006815
		CHANNELS 3 Zrotation Yrotation Xrotation
		JOINT LeftLeg
		{
			OFFSET 0.034277 -0.375199 -0.004496
			CHANNELS 3 Zrotation Yrotation Xrotation
			JOINT LeftFoot
			{
				OFFSET -0.013596 -0.397961 -0.043693
				CHANNELS 3 Zrotation Yrotation Xrotation
				JOINT LeftToe
				{
					OFFSET 0.026358 -0.055791 0.119288
					CHANNELS 3 Zrotation Yrotation Xrotation
					End Site
					{
						OFFSET 0.000000 0.000000 0.000000
					}
				}
			}
		}
	}
	JOINT RightUpLeg
	{
		OFFSET -0.067670 -0.090522 -0.004320
		CHANNELS 3 Zrotation Yrotation Xrotation
		JOINT RightLeg
		{
			OFFSET -0.038290 -0.382569 -0.008850
			CHANNELS 3 Zrotation Yrotation Xrotation
			JOINT RightFoot
			{
				OFFSET 0.015774 -0.398415 -0.042312
				CHANNELS 3 Zrotation Yrotation Xrotation
				JOINT RightToe
				{
					OFFSET -0.025372 -0.048144 0.123348
					CHANNELS 3 Zrotation Yrotation Xrotation
					End Site
					{
						OFFSET 0.000000 0.000000 0.000000
					}
				}
			}
		}
	}
	JOINT Spine
	{
		OFFSET -0.002533 0.108963 -0.026696
		CHANNELS 3 Zrotation Yrotation Xrotation
		JOINT Spine1
		{
			OFFSET 0.005487 0.135180 0.001092
			CHANNELS 3 Zrotation Yrotation Xrotation
			JOINT Spine2
			{
				OFFSET 0.001457 0.052922 0.025425
				CHANNELS 3 Zrotation Yrotation Xrotation
				JOINT Neck
				{
					OFFSET -0.002778 0.213870 -0.042857
					CHANNELS 3 Zrotation Yrotation Xrotation
					JOINT Head
					{
						OFFSET 0.005152 0.064970 0.051349
						CHANNELS 3 Zrotation Yrotation Xrotation
						End Site
						{
							OFFSET 0.000000 0.000000 0.000000
						}
					}
				}
				JOINT LeftShoulder
				{
					OFFSET 0.078845 0.121749 -0.034090
					CHANNELS 3 Zrotation Yrotation Xrotation
					JOINT LeftArm
					{
						OFFSET 0.090977 0.030469 -0.008868
						CHANNELS 3 Zrotation Yrotation Xrotation
						JOINT LeftForeArm
						{
							OFFSET 0.259612 -0.012772 -0.027456
							CHANNELS 3 Zrotation Yrotation Xrotation
							JOINT LeftHand
							{
								OFFSET 0.249234 0.008986 -0.001171
								CHANNELS 3 Zrotation Yrotation Xrotation
								End Site
								{
									OFFSET 0.000000 0.000000 0.000000
								}
							}
						}
					}
				}
				JOINT RightShoulder
				{
					OFFSET -0.081759 0.118833 -0.038615
					CHANNELS 3 Zrotation Yrotation Xrotation
					JOINT RightArm
					{
						OFFSET -0.096012 0.032551 -0.009143
						CHANNELS 3 Zrotation Yrotation Xrotation
						JOINT RightForeArm
						{
							OFFSET -0.253742 -0.013329 -0.021401
							CHANNELS 3 Zrotation Yrotation Xrotation
							JOINT RightHand
							{
								OFFSET -0.255298 0.007772 -0.005559
								CHANNELS 3 Zrotation Yrotation Xrotation
								End Site
								{
									OFFSET 0.000000 0.000000 0.000000
								}
							}
						}
					}
				}
			}
		}
	}
}
MOTION
Frames: 15
Frame Time: 0.050000
0.811852 0.954725 3.896711 -0.310822 24.123315 -8.159891 7.921547 -0.464183 -2.242298 -6.355980 -0.426739 21.342663 10.440975 19.299688 1.680074 0.000000 0.000000 0.000000 -0.506885 0.560171 -7.178036 2.689712 -0.866559 12.477843 -5.238959 -11.963863 13.699008 0.000000 0.000000 0.000000 -1.275912 -0.479759 9.742531 3.702808 0.130103 -24.515860 -1.178860 2.466905 28.731027 3.162165 2.611104 -26.010017 0.000000 0.000000 0.000000 -22.778344 0.965025 -7.631361 -53.088647 -0.265402 -7.399249 -18.806041 -38.683692 6.621046 0.000000 0.000000 0.000000 -3.312410 13.713320 4.148698 15.857849 38.385356 2.258364 -30.011897 26.174308 -4.357083 0.000000 0.000000 0.000000 
0.816399 0.956189 3.921786 -0.286675 24.187685 -7.232437 7.780566 -0.471560 -2.213914 -4.752825 -0.103133 12.635242 8.531161 16.755873 3.614481 0.000000 0.000000 0.000000 -0.360573 0.435690 -5.261039 2.406346 -0.717017 11.295726 -5.348668 -12.334196 12.196388 0.000000 0.000000 0.000000 -1.144551 -0.491575 9.834003 3.200354 0.261817 -25.339366 -1.008619 3.052654 29.012317 4.232327 2.097334 -26.060312 0.000000 0.000000 0.000000 -23.060713 -0.343846 -7.207271 -52.446888 -0.553805 -7.095232 -17.719731 -38.555092 6.176988 0.000000 0.000000 0.000000 -4.210024 13.764102 3.902405 11.790303 38.785871 1.418471 -30.129692 24.372432 -4.016440 0.000000 0.000000 0.000000 
0.821119 0.955966 3.943834 -0.671176 24.767059 -7.853999 7.387239 -0.441799 -1.229760 -2.714683 -0.163661 8.638903 6.408435 13.705991 4.510661 0.000000 0.000000 0.000000 0.217150 0.234480 -2.573411 2.168082 -0.612543 10.150246 -5.781097 -13.236310 11.905647 0.000000 0.000000 0.000000 -1.475204 -0.560960 10.904903 3.309574 0.241651 -24.877091 -0.857631 2.023042 28.553099 5.049595 1.527415 -26.357055 0.000000 0.000000 0.000000 -23.129705 -0.599280 -6.843928 -52.850767 -1.683647 -6.703425 -15.647557 -39.281342 5.659340 0.000000 0.000000 0.000000 -4.473836 14.514613 4.083541 7.918266 40.220882 0.583422 -31.038079 21.608617 -3.689589 0.000000 0.000000 0.000000 
0.825984 0.954867 3.962801 -0.809329 24.858590 -7.888799 6.955347 -0.408064 -0.488730 -1.360605 -0.267270 7.583098 4.779586 11.500315 5.361701 0.000000 0.000000 0.000000 0.515896 0.040576 -0.595924 1.874425 -0.483068 8.960503 -6.127748 -14.036352 11.595494 0.000000 0.000000 0.000000 -2.292583 -0.492091 10.668512 3.613915 0.164746 -24.502569 -0.741053 1.677567 28.621246 6.278745 0.746819 -26.442870 0.000000 0.000000 0.000000 -23.064588 -1.970692 -5.937353 -53.124117 -3.164592 -6.160151 -12.668545 -39.670516 4.734764 0.000000 0.000000 0.000000 -3.391761 15.085066 4.593344 4.609452 40.603588 -0.343309 -31.116737 21.013211 -3.713858 0.000000 0.000000 0.000000 
0.830862 0.952784 3.977977 -1.569214 24.788552 -7.680104 7.375631 -0.444147 0.264877 -0.658575 -0.297526 6.759824 4.303654 10.962139 5.877393 0.000000 0.000000 0.000000 0.924562 0.016303 -0.216884 2.201681 -0.542136 8.399516 -6.789237 -15.349653 11.920019 0.000000 0.000000 0.000000 -2.816360 -0.430888 10.204921 4.721970 -0.135097 -23.852283 -1.099480 0.842642 28.297405 6.482558 0.304714 -25.258555 0.000000 0.000000 0.000000 -23.640541 -2.693444 -5.422890 -52.712693 -4.268229 -5.584291 -11.279249 -41.714652 4.569746 0.000000 0.000000 0.000000 -2.876049 16.007317 5.081967 3.644013 40.185349 -0.707569 -31.591356 21.471649 -3.991803 0.000000 0.000000 0.000000 
0.835207 0.951785 3.989341 -1.686186 23.919968 -6.637524 7.630845 -0.462835 0.922898 -0.949954 -0.192007 5.689445 4.738274 11.641488 5.948270 0.000000 0.000000 0.000000 0.811910 0.026926 -0.312753 2.261384 -0.526821 8.216102 -7.434333 -16.827219 11.475546 0.000000 0.000000 0.000000 -3.665705 -0.318376 9.232659 5.488789 -0.383245 -23.162199 -0.992251 0.347919 27.816408 6.246586 0.158305 -24.593617 0.000000 0.000000 0.000000 -24.503256 -2.919178 -5.150269 -51.836738 -4.914782 -5.160604 -10.919101 -45.369865 4.986087 0.000000 0.000000 0.000000 -2.263909 17.746166 5.883175 3.991897 38.717499 -0.788916 -31.651585 23.481635 -4.594564 0.000000 0.000000 0.000000 
0.838991 0.951329 3.996916 -2.050358 24.020674 -6.105732 8.266981 -0.539610 1.532634 -1.278713 -0.100373 4.603497 4.965733 12.055986 6.163207 0.000000 0.000000 0.000000 0.833793 0.049743 -0.485102 2.178133 -0.479323 7.428348 -8.216704 -18.155849 12.565943 0.000000 0.000000 0.000000 -3.798478 -0.278194 8.587631 5.482192 -0.377020 -23.254438 -0.930863 -0.218029 27.968503 5.810583 0.283646 -24.125146 0.000000 0.000000 0.000000 -24.084424 -2.706300 -5.006783 -52.341006 -5.551085 -5.058336 -13.181320 -49.016642 6.484222 0.000000 0.000000 0.000000 -1.089279 18.207725 6.400463 5.872663 36.961369 -0.536301 -31.601249 27.337341 -5.539231 0.000000 0.000000 0.000000 
0.842404 0.950953 4.001713 -2.054032 24.030791 -5.263263 8.467341 -0.572245 1.541250 -1.640620 -0.050951 4.276408 5.254879 12.461121 6.093363 0.000000 0.000000 0.000000 0.672825 0.091026 -0.877838 2.607473 -0.562628 6.972950 -8.822569 -19.286942 12.835898 0.000000 0.000000 0.000000 -4.498494 -0.204922 7.585701 5.879899 -0.513122 -22.691193 -0.855483 -0.636052 27.666872 5.554883 0.242353 -23.278802 0.000000 0.000000 0.000000 -23.545880 -2.678795 -4.724115 -51.815559 -6.232077 -4.776014 -16.874606 -53.181084 8.968840 0.000000 0.000000 0.000000 0.031715 18.715202 6.929006 7.704488 35.448286 -0.315905 -31.210047 30.449371 -6.226130 0.000000 0.000000 0.000000 
0.845795 0.950750 4.003978 -2.044269 23.988793 -4.851231 8.386107 -0.566346 1.239889 -1.542409 -0.050569 4.049222 4.703248 11.691232 6.257782 0.000000 0.000000 0.000000 0.185319 0.025502 -0.450427 2.872342 -0.583399 5.859792 -8.984797 -19.420986 13.703014 0.000000 0.000000 0.000000 -5.083432 -0.171606 7.250626 6.203481 -0.607254 -22.646900 -0.315990 -0.702934 27.931271 5.178173 0.392543 -22.786515 0.000000 0.000000 0.000000 -23.300778 -2.746859 -4.574344 -51.708692 -7.362727 -4.359081 -21.156250 -56.003022 11.817701 0.000000 0.000000 0.000000 0.850078 18.566503 7.114127 9.476592 34.221667 -0.111593 -30.166530 33.292758 -6.624163 0.000000 0.000000 0.000000 
0.849342 0.949616 4.004382 -1.933537 24.142613 -4.470377 8.176312 -0.548082 0.646273 -1.534283 -0.092551 4.921911 4.515650 11.005696 5.289706 0.000000 0.000000 0.000000 -0.362834 0.006163 -0.457377 3.225336 -0.643326 5.234869 -9.540326 -20.467856 13.789433 0.000000 0.000000 0.000000 -5.717095 -0.145381 6.926910 6.513276 -0.722532 -22.115058 -0.138139 -0.964751 28.221132 4.876537 0.446119 -22.093925 0.000000 0.000000 0.000000 -22.701787 -2.634354 -4.395536 -51.732716 -8.773019 -3.883614 -25.063702 -57.914643 14.528376 0.000000 0.000000 0.000000 1.175623 18.296770 7.102725 11.076498 33.326891 0.070444 -30.577503 33.792560 -6.820746 0.000000 0.000000 0.000000 
0.852961 0.948902 4.003335 -1.996323 24.055737 -4.275625 8.048517 -0.535293 0.129277 -1.438776 -0.121654 5.308742 4.242887 10.587279 5.291889 0.000000 0.000000 0.000000 -0.737749 -0.010647 -0.428530 3.296476 -0.648350 4.934784 -9.894593 -21.119311 13.944092 0.000000 0.000000 0.000000 -5.817487 -0.138817 6.893979 6.635500 -0.777089 -21.760672 0.079600 -0.705813 28.066120 5.015728 0.377828 -21.987312 0.000000 0.000000 0.000000 -22.354758 -2.483828 -4.457279 -51.937393 -9.576211 -3.566561 -28.036935 -58.680048 16.386745 0.000000 0.000000 0.000000 1.766680 17.491561 6.987797 12.536949 32.993348 0.262701 -31.574536 34.188680 -7.098762 0.000000 0.000000 0.000000 
0.856531 0.947485 4.001344 -1.950137 23.818538 -4.035620 7.847831 -0.514688 -0.491619 -1.410912 -0.169867 6.179556 4.320199 10.204219 4.134413 0.000000 0.000000 0.000000 -1.279594 -0.014802 -0.592325 3.277164 -0.639687 4.955381 -10.128270 -21.755520 13.322032 0.000000 0.000000 0.000000 -5.973082 -0.130269 6.884711 6.715278 -0.831387 -21.277609 0.335604 -0.676810 28.325799 4.553259 0.472781 -20.746432 0.000000 0.000000 0.000000 -22.637328 -2.406235 -4.507455 -51.739632 -10.458322 -3.196708 -29.454917 -59.667915 17.618500 0.000000 0.000000 0.000000 2.264483 16.907897 6.898287 13.568033 32.956207 0.378569 -33.880908 34.405399 -7.743254 0.000000 0.000000 0.000000 
0.859884 0.946785 3.998557 -2.112946 23.560888 -4.167236 7.922684 -0.514870 -0.695569 -1.459952 -0.171677 6.341541 4.321109 10.252815 4.219968 0.000000 0.000000 0.000000 -1.613380 0.005170 -0.954968 3.289522 -0.650846 5.363261 -10.106419 -21.758652 13.146056 0.000000 0.000000 0.000000 -5.967381 -0.137820 7.300678 7.079552 -0.981377 -20.711099 0.218051 -0.105827 28.227649 4.569404 0.424484 -20.030374 0.000000 0.000000 0.000000 -22.782965 -2.474849 -4.627235 -51.516584 -10.771039 -2.981999 -30.583003 -60.582220 18.501772 0.000000 0.000000 0.000000 3.241529 16.150733 6.905439 14.543267 32.746349 0.466303 -37.119907 34.587744 -8.578372 0.000000 0.000000 0.000000 
0.862832 0.945833 3.995249 -2.164501 23.235964 -3.960576 7.901079 -0.511302 -0.938782 -1.668465 -0.136331 6.158872 4.436306 10.246143 3.773866 0.000000 0.000000 0.000000 -2.101080 0.027289 -1.438390 3.319401 -0.658733 5.590821 -9.842313 -21.345672 12.751105 0.000000 0.000000 0.000000 -6.070518 -0.130021 7.360171 7.370962 -1.118875 -20.095800 0.343753 -0.068688 28.487775 4.162019 0.523001 -19.023000 0.000000 0.000000 0.000000 -23.085736 -2.595216 -4.567228 -51.300277 -11.236264 -2.776818 -30.306726 -61.712955 18.819918 0.000000 0.000000 0.000000 3.350074 15.668144 6.732800 16.707619 32.367709 0.749342 -40.577790 36.471426 -10.040266 0.000000 0.000000 0.000000 
0.865229 0.945461 3.991239 -2.275311 23.154180 -3.894492 8.056807 -0.523469 -1.053646 -1.916969 -0.080389 5.579916 4.427385 10.491795 4.341302 0.000000 0.000000 0.000000 -2.383926 0.048667 -1.864340 3.368648 -0.668672 5.609197 -9.851123 -21.266017 13.027924 0.000000 0.000000 0.000000 -6.053745 -0.134639 7.705921 7.372876 -1.155100 -19.597062 0.248755 -0.159646 28.836382 3.895970 0.609663 -18.533957 0.000000 0.000000 0.000000 -23.290995 -2.937622 -4.362826 -51.177116 -11.465175 -2.700086 -28.582520 -62.288312 18.038039 0.000000 0.000000 0.000000 4.207605 14.858871 6.640527 18.500134 31.936307 0.886554 -43.521246 39.700069 -11.994659 0.000000 0.000000 0.000000 
